<mxfile host="app.diagrams.net" agent="Mozilla/5.0 (Windows NT 10.0; Win64; x64) AppleWebKit/537.36 (KHTML, like Gecko) Chrome/131.0.0.0 Safari/537.36 Edg/131.0.0.0" version="24.9.0">
  <diagram name="第 1 页" id="8FD0sAaV2BDL5MSyCwgA">
    <mxGraphModel dx="1388" dy="791" grid="1" gridSize="10" guides="1" tooltips="1" connect="1" arrows="1" fold="1" page="1" pageScale="1" pageWidth="1000" pageHeight="1000" math="0" shadow="0">
      <root>
        <mxCell id="0" />
        <mxCell id="1" parent="0" />
        <mxCell id="_jm8PxXjl7fhp1NevTsb-1" value="" style="rounded=0;whiteSpace=wrap;html=1;fillColor=#dae8fc;strokeColor=#6c8ebf;" parent="1" vertex="1">
          <mxGeometry x="270" y="140" width="490" height="220" as="geometry" />
        </mxCell>
        <mxCell id="_jm8PxXjl7fhp1NevTsb-2" value="server" style="text;html=1;align=center;verticalAlign=middle;whiteSpace=wrap;rounded=0;" parent="1" vertex="1">
          <mxGeometry x="270" y="140" width="50" height="20" as="geometry" />
        </mxCell>
        <mxCell id="_jm8PxXjl7fhp1NevTsb-16" style="edgeStyle=orthogonalEdgeStyle;rounded=0;orthogonalLoop=1;jettySize=auto;html=1;exitX=1;exitY=0.5;exitDx=0;exitDy=0;entryX=0;entryY=0.5;entryDx=0;entryDy=0;" parent="1" source="_jm8PxXjl7fhp1NevTsb-5" target="_jm8PxXjl7fhp1NevTsb-12" edge="1">
          <mxGeometry relative="1" as="geometry" />
        </mxCell>
        <mxCell id="_jm8PxXjl7fhp1NevTsb-5" value="" style="rounded=0;whiteSpace=wrap;html=1;fillColor=#d5e8d4;strokeColor=#82b366;" parent="1" vertex="1">
          <mxGeometry x="50" y="170" width="110" height="40" as="geometry" />
        </mxCell>
        <mxCell id="_jm8PxXjl7fhp1NevTsb-6" value="client" style="text;html=1;align=center;verticalAlign=middle;whiteSpace=wrap;rounded=0;" parent="1" vertex="1">
          <mxGeometry x="50" y="170" width="40" height="20" as="geometry" />
        </mxCell>
        <mxCell id="_jm8PxXjl7fhp1NevTsb-17" style="edgeStyle=orthogonalEdgeStyle;rounded=0;orthogonalLoop=1;jettySize=auto;html=1;exitX=1;exitY=0.5;exitDx=0;exitDy=0;entryX=0;entryY=0.5;entryDx=0;entryDy=0;" parent="1" source="_jm8PxXjl7fhp1NevTsb-8" target="_jm8PxXjl7fhp1NevTsb-12" edge="1">
          <mxGeometry relative="1" as="geometry" />
        </mxCell>
        <mxCell id="_jm8PxXjl7fhp1NevTsb-8" value="" style="rounded=0;whiteSpace=wrap;html=1;fillColor=#d5e8d4;strokeColor=#82b366;" parent="1" vertex="1">
          <mxGeometry x="50" y="270" width="110" height="40" as="geometry" />
        </mxCell>
        <mxCell id="_jm8PxXjl7fhp1NevTsb-12" value="" style="rounded=0;whiteSpace=wrap;html=1;fillColor=#f5f5f5;fontColor=#333333;strokeColor=#666666;" parent="1" vertex="1">
          <mxGeometry x="310" y="215" width="120" height="60" as="geometry" />
        </mxCell>
        <mxCell id="_jm8PxXjl7fhp1NevTsb-14" value="2. Queue" style="text;html=1;align=center;verticalAlign=middle;whiteSpace=wrap;rounded=0;" parent="1" vertex="1">
          <mxGeometry x="310" y="215" width="60" height="20" as="geometry" />
        </mxCell>
        <mxCell id="_jm8PxXjl7fhp1NevTsb-19" value="push 4" style="rounded=0;whiteSpace=wrap;html=1;fontSize=8;strokeWidth=0.7;" parent="1" vertex="1">
          <mxGeometry x="170" y="262.5" width="30" height="10" as="geometry" />
        </mxCell>
        <mxCell id="_jm8PxXjl7fhp1NevTsb-20" value="1. Send" style="text;html=1;align=center;verticalAlign=middle;whiteSpace=wrap;rounded=0;" parent="1" vertex="1">
          <mxGeometry x="175" y="140" width="60" height="25" as="geometry" />
        </mxCell>
        <mxCell id="_jm8PxXjl7fhp1NevTsb-21" value="1. Send" style="text;html=1;align=center;verticalAlign=middle;whiteSpace=wrap;rounded=0;" parent="1" vertex="1">
          <mxGeometry x="155" y="237.5" width="60" height="25" as="geometry" />
        </mxCell>
        <mxCell id="_jm8PxXjl7fhp1NevTsb-29" style="edgeStyle=orthogonalEdgeStyle;rounded=0;orthogonalLoop=1;jettySize=auto;html=1;exitX=1;exitY=0.5;exitDx=0;exitDy=0;" parent="1" target="_jm8PxXjl7fhp1NevTsb-26" edge="1">
          <mxGeometry relative="1" as="geometry">
            <mxPoint x="390" y="245" as="sourcePoint" />
          </mxGeometry>
        </mxCell>
        <mxCell id="_jm8PxXjl7fhp1NevTsb-26" value="" style="rounded=0;whiteSpace=wrap;html=1;fillColor=#f5f5f5;fontColor=#333333;strokeColor=#666666;" parent="1" vertex="1">
          <mxGeometry x="450" y="215" width="120" height="60" as="geometry" />
        </mxCell>
        <mxCell id="_jm8PxXjl7fhp1NevTsb-27" value="3. Process" style="text;html=1;align=center;verticalAlign=middle;whiteSpace=wrap;rounded=0;" parent="1" vertex="1">
          <mxGeometry x="450" y="215" width="70" height="20" as="geometry" />
        </mxCell>
        <mxCell id="_jm8PxXjl7fhp1NevTsb-30" value="" style="shape=cylinder3;whiteSpace=wrap;html=1;boundedLbl=1;backgroundOutline=1;size=15;" parent="1" vertex="1">
          <mxGeometry x="420" y="310" width="60" height="40" as="geometry" />
        </mxCell>
        <mxCell id="_jm8PxXjl7fhp1NevTsb-33" value="model" style="text;html=1;align=center;verticalAlign=middle;whiteSpace=wrap;rounded=0;" parent="1" vertex="1">
          <mxGeometry x="370" y="320" width="60" height="20" as="geometry" />
        </mxCell>
        <mxCell id="_jm8PxXjl7fhp1NevTsb-34" value="" style="rounded=0;whiteSpace=wrap;html=1;fillColor=#f5f5f5;fontColor=#333333;strokeColor=#666666;" parent="1" vertex="1">
          <mxGeometry x="590" y="215" width="120" height="60" as="geometry" />
        </mxCell>
        <mxCell id="_jm8PxXjl7fhp1NevTsb-35" value="4. Broadcast" style="text;html=1;align=center;verticalAlign=middle;whiteSpace=wrap;rounded=0;" parent="1" vertex="1">
          <mxGeometry x="590" y="215" width="80" height="20" as="geometry" />
        </mxCell>
        <mxCell id="_jm8PxXjl7fhp1NevTsb-39" value="" style="shape=cylinder3;whiteSpace=wrap;html=1;boundedLbl=1;backgroundOutline=1;size=15;" parent="1" vertex="1">
          <mxGeometry x="540" y="310" width="60" height="40" as="geometry" />
        </mxCell>
        <mxCell id="_jm8PxXjl7fhp1NevTsb-43" style="edgeStyle=orthogonalEdgeStyle;rounded=0;orthogonalLoop=1;jettySize=auto;html=1;exitX=1;exitY=0;exitDx=0;exitDy=22.5;exitPerimeter=0;entryX=0;entryY=0;entryDx=0;entryDy=22.5;entryPerimeter=0;" parent="1" source="_jm8PxXjl7fhp1NevTsb-30" target="_jm8PxXjl7fhp1NevTsb-39" edge="1">
          <mxGeometry relative="1" as="geometry" />
        </mxCell>
        <mxCell id="_jm8PxXjl7fhp1NevTsb-49" value="&lt;font style=&quot;font-size: 8px;&quot;&gt;FCFS&lt;/font&gt;" style="text;html=1;align=center;verticalAlign=middle;whiteSpace=wrap;rounded=0;" parent="1" vertex="1">
          <mxGeometry x="385" y="231.5" width="55" height="12.5" as="geometry" />
        </mxCell>
        <mxCell id="_jm8PxXjl7fhp1NevTsb-86" value="" style="rounded=0;whiteSpace=wrap;html=1;fillColor=#d5e8d4;strokeColor=#82b366;" parent="1" vertex="1">
          <mxGeometry x="810" y="140" width="310" height="90" as="geometry" />
        </mxCell>
        <mxCell id="_jm8PxXjl7fhp1NevTsb-87" value="" style="rounded=0;whiteSpace=wrap;html=1;fillColor=#f5f5f5;fontColor=#333333;strokeColor=#666666;" parent="1" vertex="1">
          <mxGeometry x="817.5" y="160" width="82.5" height="50" as="geometry" />
        </mxCell>
        <mxCell id="_jm8PxXjl7fhp1NevTsb-92" value="" style="shape=cylinder3;whiteSpace=wrap;html=1;boundedLbl=1;backgroundOutline=1;size=15;" parent="1" vertex="1">
          <mxGeometry x="920" y="160" width="60" height="40" as="geometry" />
        </mxCell>
        <mxCell id="_jm8PxXjl7fhp1NevTsb-94" value="" style="shape=cylinder3;whiteSpace=wrap;html=1;boundedLbl=1;backgroundOutline=1;size=15;" parent="1" vertex="1">
          <mxGeometry x="1040" y="160" width="60" height="40" as="geometry" />
        </mxCell>
        <mxCell id="_jm8PxXjl7fhp1NevTsb-96" style="edgeStyle=orthogonalEdgeStyle;rounded=0;orthogonalLoop=1;jettySize=auto;html=1;exitX=1;exitY=0;exitDx=0;exitDy=22.5;exitPerimeter=0;entryX=0;entryY=0;entryDx=0;entryDy=22.5;entryPerimeter=0;" parent="1" source="_jm8PxXjl7fhp1NevTsb-92" target="_jm8PxXjl7fhp1NevTsb-94" edge="1">
          <mxGeometry relative="1" as="geometry" />
        </mxCell>
        <mxCell id="_jm8PxXjl7fhp1NevTsb-98" value="5. Process" style="text;html=1;align=center;verticalAlign=middle;whiteSpace=wrap;rounded=0;" parent="1" vertex="1">
          <mxGeometry x="817.5" y="160" width="62.5" height="20" as="geometry" />
        </mxCell>
        <mxCell id="_jm8PxXjl7fhp1NevTsb-102" value="ver 4" style="rounded=0;whiteSpace=wrap;html=1;fontSize=8;strokeWidth=0.7;" parent="1" vertex="1">
          <mxGeometry x="170" y="272.5" width="30" height="10" as="geometry" />
        </mxCell>
        <mxCell id="_jm8PxXjl7fhp1NevTsb-103" value="push 3" style="rounded=0;whiteSpace=wrap;html=1;fontSize=8;strokeWidth=0.7;" parent="1" vertex="1">
          <mxGeometry x="190" y="165" width="30" height="10" as="geometry" />
        </mxCell>
        <mxCell id="_jm8PxXjl7fhp1NevTsb-104" value="ver 4" style="rounded=0;whiteSpace=wrap;html=1;fontSize=8;strokeWidth=0.7;" parent="1" vertex="1">
          <mxGeometry x="190" y="175" width="30" height="10" as="geometry" />
        </mxCell>
        <mxCell id="_jm8PxXjl7fhp1NevTsb-105" value="push 3" style="rounded=0;whiteSpace=wrap;html=1;fontSize=8;strokeWidth=0.7;" parent="1" vertex="1">
          <mxGeometry x="360" y="235" width="30" height="10" as="geometry" />
        </mxCell>
        <mxCell id="_jm8PxXjl7fhp1NevTsb-106" value="ver 4" style="rounded=0;whiteSpace=wrap;html=1;fontSize=8;strokeWidth=0.7;" parent="1" vertex="1">
          <mxGeometry x="360" y="245" width="30" height="10" as="geometry" />
        </mxCell>
        <mxCell id="_jm8PxXjl7fhp1NevTsb-107" value="push 4" style="rounded=0;whiteSpace=wrap;html=1;fontSize=8;strokeWidth=0.7;" parent="1" vertex="1">
          <mxGeometry x="325" y="235" width="30" height="10" as="geometry" />
        </mxCell>
        <mxCell id="_jm8PxXjl7fhp1NevTsb-108" value="ver 4" style="rounded=0;whiteSpace=wrap;html=1;fontSize=8;strokeWidth=0.7;" parent="1" vertex="1">
          <mxGeometry x="325" y="245" width="30" height="10" as="geometry" />
        </mxCell>
        <mxCell id="_jm8PxXjl7fhp1NevTsb-115" style="edgeStyle=orthogonalEdgeStyle;rounded=0;orthogonalLoop=1;jettySize=auto;html=1;exitX=1;exitY=0.5;exitDx=0;exitDy=0;entryX=0.5;entryY=0;entryDx=0;entryDy=0;" parent="1" source="_jm8PxXjl7fhp1NevTsb-109" target="_jm8PxXjl7fhp1NevTsb-113" edge="1">
          <mxGeometry relative="1" as="geometry" />
        </mxCell>
        <mxCell id="_jm8PxXjl7fhp1NevTsb-109" value="push 3" style="rounded=0;whiteSpace=wrap;html=1;fontSize=8;strokeWidth=0.7;" parent="1" vertex="1">
          <mxGeometry x="495" y="235" width="30" height="10" as="geometry" />
        </mxCell>
        <mxCell id="_jm8PxXjl7fhp1NevTsb-114" style="edgeStyle=orthogonalEdgeStyle;rounded=0;orthogonalLoop=1;jettySize=auto;html=1;exitX=0;exitY=0.5;exitDx=0;exitDy=0;entryX=0.5;entryY=0;entryDx=0;entryDy=0;" parent="1" source="_jm8PxXjl7fhp1NevTsb-110" target="_jm8PxXjl7fhp1NevTsb-111" edge="1">
          <mxGeometry relative="1" as="geometry">
            <Array as="points">
              <mxPoint x="480" y="250" />
              <mxPoint x="480" y="290" />
              <mxPoint x="450" y="290" />
            </Array>
          </mxGeometry>
        </mxCell>
        <mxCell id="_jm8PxXjl7fhp1NevTsb-110" value="ver 4" style="rounded=0;whiteSpace=wrap;html=1;fontSize=8;strokeWidth=0.7;" parent="1" vertex="1">
          <mxGeometry x="495" y="245" width="30" height="10" as="geometry" />
        </mxCell>
        <mxCell id="_jm8PxXjl7fhp1NevTsb-111" value="ver 4" style="rounded=0;whiteSpace=wrap;html=1;fontSize=8;strokeWidth=0.7;" parent="1" vertex="1">
          <mxGeometry x="435" y="320" width="30" height="10" as="geometry" />
        </mxCell>
        <mxCell id="_jm8PxXjl7fhp1NevTsb-112" value="ver 5" style="rounded=0;whiteSpace=wrap;html=1;fontSize=8;strokeWidth=0.7;" parent="1" vertex="1">
          <mxGeometry x="555" y="320" width="30" height="10" as="geometry" />
        </mxCell>
        <mxCell id="_jm8PxXjl7fhp1NevTsb-113" value="push 3" style="rounded=0;whiteSpace=wrap;html=1;fontSize=8;strokeWidth=0.7;" parent="1" vertex="1">
          <mxGeometry x="495" y="320" width="30" height="10" as="geometry" />
        </mxCell>
        <mxCell id="_jm8PxXjl7fhp1NevTsb-118" value="push 3" style="rounded=0;whiteSpace=wrap;html=1;fontSize=8;strokeWidth=0.7;" parent="1" vertex="1">
          <mxGeometry x="635" y="235" width="30" height="10" as="geometry" />
        </mxCell>
        <mxCell id="_jm8PxXjl7fhp1NevTsb-128" style="edgeStyle=orthogonalEdgeStyle;rounded=0;orthogonalLoop=1;jettySize=auto;html=1;exitX=1;exitY=0;exitDx=0;exitDy=0;" parent="1" source="_jm8PxXjl7fhp1NevTsb-119" edge="1">
          <mxGeometry relative="1" as="geometry">
            <Array as="points">
              <mxPoint x="740" y="245" />
              <mxPoint x="740" y="185" />
            </Array>
            <mxPoint x="810" y="185" as="targetPoint" />
          </mxGeometry>
        </mxCell>
        <mxCell id="_jm8PxXjl7fhp1NevTsb-142" style="edgeStyle=orthogonalEdgeStyle;rounded=0;orthogonalLoop=1;jettySize=auto;html=1;exitX=1;exitY=0;exitDx=0;exitDy=0;entryX=0;entryY=0.5;entryDx=0;entryDy=0;" parent="1" source="_jm8PxXjl7fhp1NevTsb-119" target="_jm8PxXjl7fhp1NevTsb-130" edge="1">
          <mxGeometry relative="1" as="geometry">
            <Array as="points">
              <mxPoint x="740" y="245" />
              <mxPoint x="740" y="315" />
            </Array>
          </mxGeometry>
        </mxCell>
        <mxCell id="_jm8PxXjl7fhp1NevTsb-119" value="ver 4" style="rounded=0;whiteSpace=wrap;html=1;fontSize=8;strokeWidth=0.7;" parent="1" vertex="1">
          <mxGeometry x="635" y="245" width="30" height="10" as="geometry" />
        </mxCell>
        <mxCell id="_jm8PxXjl7fhp1NevTsb-144" style="edgeStyle=orthogonalEdgeStyle;rounded=0;orthogonalLoop=1;jettySize=auto;html=1;exitX=1;exitY=0.5;exitDx=0;exitDy=0;entryX=0.5;entryY=0;entryDx=0;entryDy=0;" parent="1" source="_jm8PxXjl7fhp1NevTsb-120" target="_jm8PxXjl7fhp1NevTsb-124" edge="1">
          <mxGeometry relative="1" as="geometry">
            <Array as="points">
              <mxPoint x="910" y="185" />
              <mxPoint x="910" y="150" />
              <mxPoint x="1005" y="150" />
            </Array>
          </mxGeometry>
        </mxCell>
        <mxCell id="_jm8PxXjl7fhp1NevTsb-120" value="push 3" style="rounded=0;whiteSpace=wrap;html=1;fontSize=8;strokeWidth=0.7;" parent="1" vertex="1">
          <mxGeometry x="840" y="180" width="30" height="10" as="geometry" />
        </mxCell>
        <mxCell id="_jm8PxXjl7fhp1NevTsb-143" style="edgeStyle=orthogonalEdgeStyle;rounded=0;orthogonalLoop=1;jettySize=auto;html=1;exitX=0.5;exitY=1;exitDx=0;exitDy=0;entryX=0.5;entryY=1;entryDx=0;entryDy=0;" parent="1" source="_jm8PxXjl7fhp1NevTsb-121" target="_jm8PxXjl7fhp1NevTsb-126" edge="1">
          <mxGeometry relative="1" as="geometry" />
        </mxCell>
        <mxCell id="_jm8PxXjl7fhp1NevTsb-121" value="ver 4" style="rounded=0;whiteSpace=wrap;html=1;fontSize=8;strokeWidth=0.7;" parent="1" vertex="1">
          <mxGeometry x="840" y="190" width="30" height="10" as="geometry" />
        </mxCell>
        <mxCell id="_jm8PxXjl7fhp1NevTsb-124" value="push 3" style="rounded=0;whiteSpace=wrap;html=1;fontSize=8;strokeWidth=0.7;" parent="1" vertex="1">
          <mxGeometry x="990" y="170" width="30" height="10" as="geometry" />
        </mxCell>
        <mxCell id="_jm8PxXjl7fhp1NevTsb-126" value="ver 4" style="rounded=0;whiteSpace=wrap;html=1;fontSize=8;strokeWidth=0.7;" parent="1" vertex="1">
          <mxGeometry x="935" y="170" width="30" height="10" as="geometry" />
        </mxCell>
        <mxCell id="_jm8PxXjl7fhp1NevTsb-127" value="ver 5" style="rounded=0;whiteSpace=wrap;html=1;fontSize=8;strokeWidth=0.7;" parent="1" vertex="1">
          <mxGeometry x="1055" y="170" width="30" height="10" as="geometry" />
        </mxCell>
        <mxCell id="_jm8PxXjl7fhp1NevTsb-130" value="" style="rounded=0;whiteSpace=wrap;html=1;fillColor=#d5e8d4;strokeColor=#82b366;" parent="1" vertex="1">
          <mxGeometry x="810" y="270" width="310" height="90" as="geometry" />
        </mxCell>
        <mxCell id="_jm8PxXjl7fhp1NevTsb-131" value="" style="rounded=0;whiteSpace=wrap;html=1;fillColor=#f5f5f5;fontColor=#333333;strokeColor=#666666;" parent="1" vertex="1">
          <mxGeometry x="817.5" y="290" width="82.5" height="50" as="geometry" />
        </mxCell>
        <mxCell id="_jm8PxXjl7fhp1NevTsb-133" value="" style="shape=cylinder3;whiteSpace=wrap;html=1;boundedLbl=1;backgroundOutline=1;size=15;" parent="1" vertex="1">
          <mxGeometry x="920" y="290" width="60" height="40" as="geometry" />
        </mxCell>
        <mxCell id="_jm8PxXjl7fhp1NevTsb-134" value="" style="shape=cylinder3;whiteSpace=wrap;html=1;boundedLbl=1;backgroundOutline=1;size=15;" parent="1" vertex="1">
          <mxGeometry x="1040" y="290" width="60" height="40" as="geometry" />
        </mxCell>
        <mxCell id="_jm8PxXjl7fhp1NevTsb-135" style="edgeStyle=orthogonalEdgeStyle;rounded=0;orthogonalLoop=1;jettySize=auto;html=1;exitX=1;exitY=0;exitDx=0;exitDy=22.5;exitPerimeter=0;entryX=0;entryY=0;entryDx=0;entryDy=22.5;entryPerimeter=0;" parent="1" source="_jm8PxXjl7fhp1NevTsb-133" target="_jm8PxXjl7fhp1NevTsb-134" edge="1">
          <mxGeometry relative="1" as="geometry" />
        </mxCell>
        <mxCell id="_jm8PxXjl7fhp1NevTsb-136" value="5. Process" style="text;html=1;align=center;verticalAlign=middle;whiteSpace=wrap;rounded=0;" parent="1" vertex="1">
          <mxGeometry x="817.5" y="290" width="62.5" height="20" as="geometry" />
        </mxCell>
        <mxCell id="_jm8PxXjl7fhp1NevTsb-146" style="edgeStyle=orthogonalEdgeStyle;rounded=0;orthogonalLoop=1;jettySize=auto;html=1;exitX=1;exitY=0.5;exitDx=0;exitDy=0;entryX=0.5;entryY=0;entryDx=0;entryDy=0;" parent="1" source="_jm8PxXjl7fhp1NevTsb-137" target="_jm8PxXjl7fhp1NevTsb-139" edge="1">
          <mxGeometry relative="1" as="geometry">
            <Array as="points">
              <mxPoint x="910" y="315" />
              <mxPoint x="910" y="280" />
              <mxPoint x="1005" y="280" />
            </Array>
          </mxGeometry>
        </mxCell>
        <mxCell id="_jm8PxXjl7fhp1NevTsb-137" value="push 3" style="rounded=0;whiteSpace=wrap;html=1;fontSize=8;strokeWidth=0.7;" parent="1" vertex="1">
          <mxGeometry x="840" y="310" width="30" height="10" as="geometry" />
        </mxCell>
        <mxCell id="_jm8PxXjl7fhp1NevTsb-145" style="edgeStyle=orthogonalEdgeStyle;rounded=0;orthogonalLoop=1;jettySize=auto;html=1;exitX=0.5;exitY=1;exitDx=0;exitDy=0;entryX=0.5;entryY=1;entryDx=0;entryDy=0;" parent="1" source="_jm8PxXjl7fhp1NevTsb-138" target="_jm8PxXjl7fhp1NevTsb-140" edge="1">
          <mxGeometry relative="1" as="geometry" />
        </mxCell>
        <mxCell id="_jm8PxXjl7fhp1NevTsb-138" value="ver 4" style="rounded=0;whiteSpace=wrap;html=1;fontSize=8;strokeWidth=0.7;" parent="1" vertex="1">
          <mxGeometry x="840" y="320" width="30" height="10" as="geometry" />
        </mxCell>
        <mxCell id="_jm8PxXjl7fhp1NevTsb-139" value="push 3" style="rounded=0;whiteSpace=wrap;html=1;fontSize=8;strokeWidth=0.7;" parent="1" vertex="1">
          <mxGeometry x="990" y="300" width="30" height="10" as="geometry" />
        </mxCell>
        <mxCell id="_jm8PxXjl7fhp1NevTsb-140" value="ver 4" style="rounded=0;whiteSpace=wrap;html=1;fontSize=8;strokeWidth=0.7;" parent="1" vertex="1">
          <mxGeometry x="935" y="300" width="30" height="10" as="geometry" />
        </mxCell>
        <mxCell id="_jm8PxXjl7fhp1NevTsb-141" value="ver 5" style="rounded=0;whiteSpace=wrap;html=1;fontSize=8;strokeWidth=0.7;" parent="1" vertex="1">
          <mxGeometry x="1055" y="300" width="30" height="10" as="geometry" />
        </mxCell>
        <mxCell id="y1_JLoWW0Mbur3eFZoDh-1" value="client" style="text;html=1;align=center;verticalAlign=middle;whiteSpace=wrap;rounded=0;" vertex="1" parent="1">
          <mxGeometry x="50" y="270" width="40" height="20" as="geometry" />
        </mxCell>
        <mxCell id="y1_JLoWW0Mbur3eFZoDh-2" value="client" style="text;html=1;align=center;verticalAlign=middle;whiteSpace=wrap;rounded=0;" vertex="1" parent="1">
          <mxGeometry x="810" y="140" width="40" height="20" as="geometry" />
        </mxCell>
        <mxCell id="y1_JLoWW0Mbur3eFZoDh-3" value="client" style="text;html=1;align=center;verticalAlign=middle;whiteSpace=wrap;rounded=0;" vertex="1" parent="1">
          <mxGeometry x="810" y="270" width="40" height="20" as="geometry" />
        </mxCell>
        <mxCell id="y1_JLoWW0Mbur3eFZoDh-4" value="model" style="text;html=1;align=center;verticalAlign=middle;whiteSpace=wrap;rounded=0;" vertex="1" parent="1">
          <mxGeometry x="980" y="200" width="60" height="20" as="geometry" />
        </mxCell>
        <mxCell id="y1_JLoWW0Mbur3eFZoDh-5" value="model" style="text;html=1;align=center;verticalAlign=middle;whiteSpace=wrap;rounded=0;" vertex="1" parent="1">
          <mxGeometry x="980" y="330" width="60" height="20" as="geometry" />
        </mxCell>
        <mxCell id="y1_JLoWW0Mbur3eFZoDh-6" value="" style="rounded=0;whiteSpace=wrap;html=1;fillColor=#dae8fc;strokeColor=#6c8ebf;" vertex="1" parent="1">
          <mxGeometry x="270" y="390" width="490" height="220" as="geometry" />
        </mxCell>
        <mxCell id="y1_JLoWW0Mbur3eFZoDh-7" value="server" style="text;html=1;align=center;verticalAlign=middle;whiteSpace=wrap;rounded=0;" vertex="1" parent="1">
          <mxGeometry x="270" y="390" width="50" height="20" as="geometry" />
        </mxCell>
        <mxCell id="y1_JLoWW0Mbur3eFZoDh-8" style="edgeStyle=orthogonalEdgeStyle;rounded=0;orthogonalLoop=1;jettySize=auto;html=1;exitX=1;exitY=0.5;exitDx=0;exitDy=0;entryX=0;entryY=0.5;entryDx=0;entryDy=0;" edge="1" parent="1" source="y1_JLoWW0Mbur3eFZoDh-9" target="y1_JLoWW0Mbur3eFZoDh-13">
          <mxGeometry relative="1" as="geometry" />
        </mxCell>
        <mxCell id="y1_JLoWW0Mbur3eFZoDh-9" value="" style="rounded=0;whiteSpace=wrap;html=1;fillColor=#d5e8d4;strokeColor=#82b366;" vertex="1" parent="1">
          <mxGeometry x="50" y="420" width="110" height="40" as="geometry" />
        </mxCell>
        <mxCell id="y1_JLoWW0Mbur3eFZoDh-10" value="client" style="text;html=1;align=center;verticalAlign=middle;whiteSpace=wrap;rounded=0;" vertex="1" parent="1">
          <mxGeometry x="50" y="420" width="40" height="20" as="geometry" />
        </mxCell>
        <mxCell id="y1_JLoWW0Mbur3eFZoDh-11" style="edgeStyle=orthogonalEdgeStyle;rounded=0;orthogonalLoop=1;jettySize=auto;html=1;exitX=1;exitY=0.5;exitDx=0;exitDy=0;entryX=0;entryY=0.5;entryDx=0;entryDy=0;" edge="1" parent="1" source="y1_JLoWW0Mbur3eFZoDh-12" target="y1_JLoWW0Mbur3eFZoDh-13">
          <mxGeometry relative="1" as="geometry" />
        </mxCell>
        <mxCell id="y1_JLoWW0Mbur3eFZoDh-12" value="" style="rounded=0;whiteSpace=wrap;html=1;fillColor=#d5e8d4;strokeColor=#82b366;" vertex="1" parent="1">
          <mxGeometry x="50" y="520" width="110" height="40" as="geometry" />
        </mxCell>
        <mxCell id="y1_JLoWW0Mbur3eFZoDh-13" value="" style="rounded=0;whiteSpace=wrap;html=1;fillColor=#f5f5f5;fontColor=#333333;strokeColor=#666666;" vertex="1" parent="1">
          <mxGeometry x="310" y="465" width="120" height="60" as="geometry" />
        </mxCell>
        <mxCell id="y1_JLoWW0Mbur3eFZoDh-14" value="2. Queue" style="text;html=1;align=center;verticalAlign=middle;whiteSpace=wrap;rounded=0;" vertex="1" parent="1">
          <mxGeometry x="310" y="465" width="60" height="20" as="geometry" />
        </mxCell>
        <mxCell id="y1_JLoWW0Mbur3eFZoDh-15" value="push 4" style="rounded=0;whiteSpace=wrap;html=1;fontSize=8;strokeWidth=0.7;" vertex="1" parent="1">
          <mxGeometry x="170" y="512.5" width="30" height="10" as="geometry" />
        </mxCell>
        <mxCell id="y1_JLoWW0Mbur3eFZoDh-16" value="1. Send" style="text;html=1;align=center;verticalAlign=middle;whiteSpace=wrap;rounded=0;" vertex="1" parent="1">
          <mxGeometry x="175" y="390" width="60" height="25" as="geometry" />
        </mxCell>
        <mxCell id="y1_JLoWW0Mbur3eFZoDh-17" value="1. Send" style="text;html=1;align=center;verticalAlign=middle;whiteSpace=wrap;rounded=0;" vertex="1" parent="1">
          <mxGeometry x="155" y="487.5" width="60" height="25" as="geometry" />
        </mxCell>
        <mxCell id="y1_JLoWW0Mbur3eFZoDh-18" style="edgeStyle=orthogonalEdgeStyle;rounded=0;orthogonalLoop=1;jettySize=auto;html=1;exitX=1;exitY=0.5;exitDx=0;exitDy=0;" edge="1" parent="1" target="y1_JLoWW0Mbur3eFZoDh-19">
          <mxGeometry relative="1" as="geometry">
            <mxPoint x="390" y="495" as="sourcePoint" />
          </mxGeometry>
        </mxCell>
        <mxCell id="y1_JLoWW0Mbur3eFZoDh-19" value="" style="rounded=0;whiteSpace=wrap;html=1;fillColor=#f5f5f5;fontColor=#333333;strokeColor=#666666;" vertex="1" parent="1">
          <mxGeometry x="450" y="465" width="120" height="60" as="geometry" />
        </mxCell>
        <mxCell id="y1_JLoWW0Mbur3eFZoDh-20" value="3. Process" style="text;html=1;align=center;verticalAlign=middle;whiteSpace=wrap;rounded=0;" vertex="1" parent="1">
          <mxGeometry x="450" y="465" width="70" height="20" as="geometry" />
        </mxCell>
        <mxCell id="y1_JLoWW0Mbur3eFZoDh-21" value="" style="shape=cylinder3;whiteSpace=wrap;html=1;boundedLbl=1;backgroundOutline=1;size=15;" vertex="1" parent="1">
          <mxGeometry x="420" y="560" width="60" height="40" as="geometry" />
        </mxCell>
        <mxCell id="y1_JLoWW0Mbur3eFZoDh-22" value="model" style="text;html=1;align=center;verticalAlign=middle;whiteSpace=wrap;rounded=0;" vertex="1" parent="1">
          <mxGeometry x="370" y="570" width="60" height="20" as="geometry" />
        </mxCell>
        <mxCell id="y1_JLoWW0Mbur3eFZoDh-23" value="" style="rounded=0;whiteSpace=wrap;html=1;fillColor=#f5f5f5;fontColor=#333333;strokeColor=#666666;" vertex="1" parent="1">
          <mxGeometry x="590" y="465" width="120" height="60" as="geometry" />
        </mxCell>
        <mxCell id="y1_JLoWW0Mbur3eFZoDh-24" value="4. Render" style="text;html=1;align=center;verticalAlign=middle;whiteSpace=wrap;rounded=0;" vertex="1" parent="1">
          <mxGeometry x="590" y="465" width="70" height="20" as="geometry" />
        </mxCell>
        <mxCell id="y1_JLoWW0Mbur3eFZoDh-86" style="edgeStyle=orthogonalEdgeStyle;rounded=0;orthogonalLoop=1;jettySize=auto;html=1;exitX=0.5;exitY=0;exitDx=0;exitDy=0;exitPerimeter=0;entryX=0.5;entryY=1;entryDx=0;entryDy=0;fontSize=12;startSize=8;endSize=8;" edge="1" parent="1" source="y1_JLoWW0Mbur3eFZoDh-25" target="y1_JLoWW0Mbur3eFZoDh-48">
          <mxGeometry relative="1" as="geometry">
            <Array as="points">
              <mxPoint x="570" y="540" />
              <mxPoint x="650" y="540" />
            </Array>
          </mxGeometry>
        </mxCell>
        <mxCell id="y1_JLoWW0Mbur3eFZoDh-25" value="" style="shape=cylinder3;whiteSpace=wrap;html=1;boundedLbl=1;backgroundOutline=1;size=15;" vertex="1" parent="1">
          <mxGeometry x="540" y="560" width="60" height="40" as="geometry" />
        </mxCell>
        <mxCell id="y1_JLoWW0Mbur3eFZoDh-26" style="edgeStyle=orthogonalEdgeStyle;rounded=0;orthogonalLoop=1;jettySize=auto;html=1;exitX=1;exitY=0;exitDx=0;exitDy=22.5;exitPerimeter=0;entryX=0;entryY=0;entryDx=0;entryDy=22.5;entryPerimeter=0;" edge="1" parent="1" source="y1_JLoWW0Mbur3eFZoDh-21" target="y1_JLoWW0Mbur3eFZoDh-25">
          <mxGeometry relative="1" as="geometry" />
        </mxCell>
        <mxCell id="y1_JLoWW0Mbur3eFZoDh-27" value="&lt;font style=&quot;font-size: 8px;&quot;&gt;FCFS&lt;/font&gt;" style="text;html=1;align=center;verticalAlign=middle;whiteSpace=wrap;rounded=0;" vertex="1" parent="1">
          <mxGeometry x="385" y="481.5" width="55" height="12.5" as="geometry" />
        </mxCell>
        <mxCell id="y1_JLoWW0Mbur3eFZoDh-28" value="" style="rounded=0;whiteSpace=wrap;html=1;fillColor=#d5e8d4;strokeColor=#82b366;" vertex="1" parent="1">
          <mxGeometry x="810" y="405" width="150" height="60" as="geometry" />
        </mxCell>
        <mxCell id="y1_JLoWW0Mbur3eFZoDh-34" value="ver 4" style="rounded=0;whiteSpace=wrap;html=1;fontSize=8;strokeWidth=0.7;" vertex="1" parent="1">
          <mxGeometry x="170" y="522.5" width="30" height="10" as="geometry" />
        </mxCell>
        <mxCell id="y1_JLoWW0Mbur3eFZoDh-35" value="push 3" style="rounded=0;whiteSpace=wrap;html=1;fontSize=8;strokeWidth=0.7;" vertex="1" parent="1">
          <mxGeometry x="190" y="415" width="30" height="10" as="geometry" />
        </mxCell>
        <mxCell id="y1_JLoWW0Mbur3eFZoDh-36" value="ver 4" style="rounded=0;whiteSpace=wrap;html=1;fontSize=8;strokeWidth=0.7;" vertex="1" parent="1">
          <mxGeometry x="190" y="425" width="30" height="10" as="geometry" />
        </mxCell>
        <mxCell id="y1_JLoWW0Mbur3eFZoDh-37" value="push 3" style="rounded=0;whiteSpace=wrap;html=1;fontSize=8;strokeWidth=0.7;" vertex="1" parent="1">
          <mxGeometry x="360" y="485" width="30" height="10" as="geometry" />
        </mxCell>
        <mxCell id="y1_JLoWW0Mbur3eFZoDh-38" value="ver 4" style="rounded=0;whiteSpace=wrap;html=1;fontSize=8;strokeWidth=0.7;" vertex="1" parent="1">
          <mxGeometry x="360" y="495" width="30" height="10" as="geometry" />
        </mxCell>
        <mxCell id="y1_JLoWW0Mbur3eFZoDh-39" value="push 4" style="rounded=0;whiteSpace=wrap;html=1;fontSize=8;strokeWidth=0.7;" vertex="1" parent="1">
          <mxGeometry x="325" y="485" width="30" height="10" as="geometry" />
        </mxCell>
        <mxCell id="y1_JLoWW0Mbur3eFZoDh-40" value="ver 4" style="rounded=0;whiteSpace=wrap;html=1;fontSize=8;strokeWidth=0.7;" vertex="1" parent="1">
          <mxGeometry x="325" y="495" width="30" height="10" as="geometry" />
        </mxCell>
        <mxCell id="y1_JLoWW0Mbur3eFZoDh-41" style="edgeStyle=orthogonalEdgeStyle;rounded=0;orthogonalLoop=1;jettySize=auto;html=1;exitX=1;exitY=0.5;exitDx=0;exitDy=0;entryX=0.5;entryY=0;entryDx=0;entryDy=0;" edge="1" parent="1" source="y1_JLoWW0Mbur3eFZoDh-42" target="y1_JLoWW0Mbur3eFZoDh-47">
          <mxGeometry relative="1" as="geometry" />
        </mxCell>
        <mxCell id="y1_JLoWW0Mbur3eFZoDh-42" value="push 3" style="rounded=0;whiteSpace=wrap;html=1;fontSize=8;strokeWidth=0.7;" vertex="1" parent="1">
          <mxGeometry x="495" y="485" width="30" height="10" as="geometry" />
        </mxCell>
        <mxCell id="y1_JLoWW0Mbur3eFZoDh-43" style="edgeStyle=orthogonalEdgeStyle;rounded=0;orthogonalLoop=1;jettySize=auto;html=1;exitX=0;exitY=0.5;exitDx=0;exitDy=0;entryX=0.5;entryY=0;entryDx=0;entryDy=0;" edge="1" parent="1" source="y1_JLoWW0Mbur3eFZoDh-44" target="y1_JLoWW0Mbur3eFZoDh-45">
          <mxGeometry relative="1" as="geometry">
            <Array as="points">
              <mxPoint x="480" y="500" />
              <mxPoint x="480" y="540" />
              <mxPoint x="450" y="540" />
            </Array>
          </mxGeometry>
        </mxCell>
        <mxCell id="y1_JLoWW0Mbur3eFZoDh-44" value="ver 4" style="rounded=0;whiteSpace=wrap;html=1;fontSize=8;strokeWidth=0.7;" vertex="1" parent="1">
          <mxGeometry x="495" y="495" width="30" height="10" as="geometry" />
        </mxCell>
        <mxCell id="y1_JLoWW0Mbur3eFZoDh-45" value="ver 4" style="rounded=0;whiteSpace=wrap;html=1;fontSize=8;strokeWidth=0.7;" vertex="1" parent="1">
          <mxGeometry x="435" y="570" width="30" height="10" as="geometry" />
        </mxCell>
        <mxCell id="y1_JLoWW0Mbur3eFZoDh-46" value="ver 5" style="rounded=0;whiteSpace=wrap;html=1;fontSize=8;strokeWidth=0.7;" vertex="1" parent="1">
          <mxGeometry x="555" y="570" width="30" height="10" as="geometry" />
        </mxCell>
        <mxCell id="y1_JLoWW0Mbur3eFZoDh-47" value="push 3" style="rounded=0;whiteSpace=wrap;html=1;fontSize=8;strokeWidth=0.7;" vertex="1" parent="1">
          <mxGeometry x="495" y="570" width="30" height="10" as="geometry" />
        </mxCell>
        <mxCell id="y1_JLoWW0Mbur3eFZoDh-48" value="page" style="rounded=0;whiteSpace=wrap;html=1;fontSize=8;strokeWidth=0.7;" vertex="1" parent="1">
          <mxGeometry x="635" y="487.5" width="30" height="15" as="geometry" />
        </mxCell>
        <mxCell id="y1_JLoWW0Mbur3eFZoDh-49" style="edgeStyle=orthogonalEdgeStyle;rounded=0;orthogonalLoop=1;jettySize=auto;html=1;exitX=1;exitY=0;exitDx=0;exitDy=0;" edge="1" parent="1">
          <mxGeometry relative="1" as="geometry">
            <Array as="points">
              <mxPoint x="740" y="495" />
              <mxPoint x="740" y="435" />
            </Array>
            <mxPoint x="810" y="435" as="targetPoint" />
            <mxPoint x="665" y="495" as="sourcePoint" />
          </mxGeometry>
        </mxCell>
        <mxCell id="y1_JLoWW0Mbur3eFZoDh-50" style="edgeStyle=orthogonalEdgeStyle;rounded=0;orthogonalLoop=1;jettySize=auto;html=1;exitX=1;exitY=0;exitDx=0;exitDy=0;entryX=0;entryY=0.5;entryDx=0;entryDy=0;" edge="1" parent="1">
          <mxGeometry relative="1" as="geometry">
            <Array as="points">
              <mxPoint x="740" y="495" />
              <mxPoint x="740" y="565" />
            </Array>
            <mxPoint x="665" y="495" as="sourcePoint" />
            <mxPoint x="810" y="565" as="targetPoint" />
          </mxGeometry>
        </mxCell>
        <mxCell id="y1_JLoWW0Mbur3eFZoDh-72" value="client" style="text;html=1;align=center;verticalAlign=middle;whiteSpace=wrap;rounded=0;" vertex="1" parent="1">
          <mxGeometry x="50" y="520" width="40" height="20" as="geometry" />
        </mxCell>
        <mxCell id="y1_JLoWW0Mbur3eFZoDh-73" value="client" style="text;html=1;align=center;verticalAlign=middle;whiteSpace=wrap;rounded=0;" vertex="1" parent="1">
          <mxGeometry x="810" y="405" width="40" height="20" as="geometry" />
        </mxCell>
        <mxCell id="y1_JLoWW0Mbur3eFZoDh-79" value="" style="rounded=0;whiteSpace=wrap;html=1;fillColor=#d5e8d4;strokeColor=#82b366;" vertex="1" parent="1">
          <mxGeometry x="810" y="532.5" width="150" height="60" as="geometry" />
        </mxCell>
        <mxCell id="y1_JLoWW0Mbur3eFZoDh-80" value="client" style="text;html=1;align=center;verticalAlign=middle;whiteSpace=wrap;rounded=0;" vertex="1" parent="1">
          <mxGeometry x="810" y="532.5" width="40" height="20" as="geometry" />
        </mxCell>
      </root>
    </mxGraphModel>
  </diagram>
</mxfile>
